<svg xmlns="http://www.w3.org/2000/svg" xmlns:xlink="http://www.w3.org/1999/xlink" width="1200" zoomAndPan="magnify" viewBox="0 0 900 225" height="300" preserveAspectRatio="xMidYMid meet" version="1.0"><defs><g/><clipPath id="c57ba80f68"><path d="M 42.457031 32.480469 L 106 32.480469 L 106 189 L 42.457031 189 Z M 42.457031 32.480469 " clip-rule="nonzero"/></clipPath><clipPath id="0588276273"><path d="M 86 49 L 146.707031 49 L 146.707031 192.230469 L 86 192.230469 Z M 86 49 " clip-rule="nonzero"/></clipPath></defs><g clip-path="url(#c57ba80f68)"><path fill="#ff2c58" d="M 105.703125 188.761719 C 68.035156 157.605469 61.058594 125.054688 85.707031 90.640625 C 88.960938 92.964844 91.289062 95.757812 93.148438 99.476562 C 98.726562 86.921875 98.726562 72.96875 94.078125 60.414062 C 88.960938 47.859375 79.195312 37.628906 66.640625 32.511719 C 81.988281 53.4375 73.152344 72.039062 61.523438 89.246094 C 50.363281 105.523438 39.203125 116.683594 43.386719 138.539062 C 48.039062 164.582031 75.476562 185.507812 105.703125 188.761719 Z M 105.703125 188.761719 " fill-opacity="1" fill-rule="evenodd"/></g><g clip-path="url(#0588276273)"><path fill="#000000" d="M 115.46875 49.253906 C 125.234375 77.15625 117.792969 108.777344 96.402344 129.703125 L 89.890625 120.402344 C 79.660156 147.839844 91.289062 178.996094 117.792969 192.484375 C 84.3125 147.375 135.464844 132.027344 145.230469 99.941406 C 150.347656 79.945312 140.117188 62.738281 115.46875 49.253906 Z M 115.46875 49.253906 " fill-opacity="1" fill-rule="evenodd"/></g><g fill="#000000" fill-opacity="1"><g transform="translate(547.278042, 142.500004)"><g><path d="M 16.296875 -55.109375 L 16.296875 -31.28125 L 47.65625 -31.28125 L 47.65625 -25.734375 L 16.296875 -25.734375 L 16.296875 0 L 9.875 0 L 9.875 -60.65625 L 51.46875 -60.65625 L 51.46875 -55.109375 Z M 16.296875 -55.109375 "/></g></g></g><g fill="#000000" fill-opacity="1"><g transform="translate(597.887167, 142.500004)"><g><path d="M 9.875 -60.65625 L 16.296875 -60.65625 L 16.296875 0 L 9.875 0 Z M 9.875 -60.65625 "/></g></g></g><g fill="#000000" fill-opacity="1"><g transform="translate(619.811757, 142.500004)"><g><path d="M 9.875 -60.65625 L 16.296875 -60.65625 L 16.296875 -5.546875 L 50.265625 -5.546875 L 50.265625 0 L 9.875 0 Z M 9.875 -60.65625 "/></g></g></g><g fill="#000000" fill-opacity="1"><g transform="translate(666.607825, 142.500004)"><g><path d="M 72.875 -60.65625 L 72.875 0 L 66.71875 0 L 66.71875 -48.53125 L 42.890625 -7.71875 L 39.859375 -7.71875 L 16.03125 -48.265625 L 16.03125 0 L 9.875 0 L 9.875 -60.65625 L 15.171875 -60.65625 L 41.515625 -15.6875 L 67.59375 -60.65625 Z M 72.875 -60.65625 "/></g></g></g><g fill="#000000" fill-opacity="1"><g transform="translate(745.121524, 142.500004)"><g><path d="M 52.78125 -5.546875 L 52.78125 0 L 9.875 0 L 9.875 -60.65625 L 51.46875 -60.65625 L 51.46875 -55.109375 L 16.296875 -55.109375 L 16.296875 -33.53125 L 47.65625 -33.53125 L 47.65625 -28.078125 L 16.296875 -28.078125 L 16.296875 -5.546875 Z M 52.78125 -5.546875 "/></g></g></g><g fill="#000000" fill-opacity="1"><g transform="translate(798.850434, 142.500004)"><g><path d="M 26.609375 0.515625 C 22.097656 0.515625 17.773438 -0.203125 13.640625 -1.640625 C 9.515625 -3.085938 6.328125 -4.992188 4.078125 -7.359375 L 6.578125 -12.3125 C 8.773438 -10.113281 11.691406 -8.332031 15.328125 -6.96875 C 18.972656 -5.613281 22.734375 -4.9375 26.609375 -4.9375 C 32.035156 -4.9375 36.101562 -5.929688 38.8125 -7.921875 C 41.53125 -9.921875 42.890625 -12.507812 42.890625 -15.6875 C 42.890625 -18.113281 42.148438 -20.046875 40.671875 -21.484375 C 39.203125 -22.929688 37.398438 -24.046875 35.265625 -24.828125 C 33.128906 -25.609375 30.15625 -26.460938 26.34375 -27.390625 C 21.78125 -28.535156 18.140625 -29.644531 15.421875 -30.71875 C 12.710938 -31.789062 10.390625 -33.421875 8.453125 -35.609375 C 6.515625 -37.804688 5.546875 -40.785156 5.546875 -44.546875 C 5.546875 -47.609375 6.351562 -50.394531 7.96875 -52.90625 C 9.59375 -55.414062 12.078125 -57.421875 15.421875 -58.921875 C 18.773438 -60.421875 22.9375 -61.171875 27.90625 -61.171875 C 31.375 -61.171875 34.765625 -60.691406 38.078125 -59.734375 C 41.398438 -58.785156 44.273438 -57.476562 46.703125 -55.8125 L 44.546875 -50.6875 C 42.003906 -52.363281 39.285156 -53.617188 36.390625 -54.453125 C 33.503906 -55.296875 30.675781 -55.71875 27.90625 -55.71875 C 22.59375 -55.71875 18.59375 -54.691406 15.90625 -52.640625 C 13.21875 -50.585938 11.875 -47.945312 11.875 -44.71875 C 11.875 -42.289062 12.609375 -40.335938 14.078125 -38.859375 C 15.554688 -37.390625 17.40625 -36.265625 19.625 -35.484375 C 21.851562 -34.703125 24.84375 -33.847656 28.59375 -32.921875 C 33.039062 -31.828125 36.632812 -30.742188 39.375 -29.671875 C 42.125 -28.609375 44.453125 -26.992188 46.359375 -24.828125 C 48.265625 -22.660156 49.21875 -19.726562 49.21875 -16.03125 C 49.21875 -12.96875 48.394531 -10.179688 46.75 -7.671875 C 45.101562 -5.160156 42.578125 -3.164062 39.171875 -1.6875 C 35.765625 -0.21875 31.578125 0.515625 26.609375 0.515625 Z M 26.609375 0.515625 "/></g></g></g><g fill="#ff2c58" fill-opacity="1"><g transform="translate(181.07888, 141.000004)"><g><path d="M 25.25 0.96875 C 20.78125 0.96875 16.460938 0.363281 12.296875 -0.84375 C 8.128906 -2.050781 4.785156 -3.625 2.265625 -5.5625 L 6.6875 -15.40625 C 9.113281 -13.632812 11.992188 -12.207031 15.328125 -11.125 C 18.660156 -10.050781 21.992188 -9.515625 25.328125 -9.515625 C 29.035156 -9.515625 31.773438 -10.066406 33.546875 -11.171875 C 35.328125 -12.273438 36.21875 -13.738281 36.21875 -15.5625 C 36.21875 -16.90625 35.691406 -18.019531 34.640625 -18.90625 C 33.585938 -19.800781 32.242188 -20.515625 30.609375 -21.046875 C 28.972656 -21.585938 26.753906 -22.179688 23.953125 -22.828125 C 19.648438 -23.847656 16.128906 -24.867188 13.390625 -25.890625 C 10.648438 -26.910156 8.296875 -28.550781 6.328125 -30.8125 C 4.367188 -33.070312 3.390625 -36.082031 3.390625 -39.84375 C 3.390625 -43.125 4.273438 -46.09375 6.046875 -48.75 C 7.816406 -51.414062 10.488281 -53.523438 14.0625 -55.078125 C 17.644531 -56.640625 22.019531 -57.421875 27.1875 -57.421875 C 30.78125 -57.421875 34.296875 -56.988281 37.734375 -56.125 C 41.179688 -55.269531 44.195312 -54.035156 46.78125 -52.421875 L 42.75 -42.5 C 37.53125 -45.457031 32.3125 -46.9375 27.09375 -46.9375 C 23.4375 -46.9375 20.734375 -46.34375 18.984375 -45.15625 C 17.242188 -43.976562 16.375 -42.421875 16.375 -40.484375 C 16.375 -38.546875 17.378906 -37.109375 19.390625 -36.171875 C 21.410156 -35.234375 24.492188 -34.304688 28.640625 -33.390625 C 32.929688 -32.367188 36.445312 -31.347656 39.1875 -30.328125 C 41.9375 -29.304688 44.289062 -27.691406 46.25 -25.484375 C 48.21875 -23.285156 49.203125 -20.300781 49.203125 -16.53125 C 49.203125 -13.300781 48.300781 -10.351562 46.5 -7.6875 C 44.695312 -5.03125 41.992188 -2.921875 38.390625 -1.359375 C 34.785156 0.191406 30.40625 0.96875 25.25 0.96875 Z M 25.25 0.96875 "/></g></g></g><g fill="#ff2c58" fill-opacity="1"><g transform="translate(244.631078, 141.000004)"><g><path d="M 31.140625 -56.453125 C 36.140625 -56.453125 40.476562 -55.617188 44.15625 -53.953125 C 47.84375 -52.285156 50.679688 -49.921875 52.671875 -46.859375 C 54.660156 -43.796875 55.65625 -40.164062 55.65625 -35.96875 C 55.65625 -31.832031 54.660156 -28.21875 52.671875 -25.125 C 50.679688 -22.03125 47.84375 -19.660156 44.15625 -18.015625 C 40.476562 -16.378906 36.140625 -15.5625 31.140625 -15.5625 L 19.765625 -15.5625 L 19.765625 0 L 6.6875 0 L 6.6875 -56.453125 Z M 30.40625 -26.21875 C 34.332031 -26.21875 37.316406 -27.0625 39.359375 -28.75 C 41.398438 -30.445312 42.421875 -32.851562 42.421875 -35.96875 C 42.421875 -39.144531 41.398438 -41.578125 39.359375 -43.265625 C 37.316406 -44.960938 34.332031 -45.8125 30.40625 -45.8125 L 19.765625 -45.8125 L 19.765625 -26.21875 Z M 30.40625 -26.21875 "/></g></g></g><g fill="#ff2c58" fill-opacity="1"><g transform="translate(315.764231, 141.000004)"><g><path d="M 43.875 -12.09375 L 17.65625 -12.09375 L 12.65625 0 L -0.71875 0 L 24.4375 -56.453125 L 37.34375 -56.453125 L 62.59375 0 L 48.875 0 Z M 39.765625 -22.015625 L 30.8125 -43.640625 L 21.859375 -22.015625 Z M 39.765625 -22.015625 "/></g></g></g><g fill="#ff2c58" fill-opacity="1"><g transform="translate(389.639434, 141.000004)"><g><path d="M 42.671875 0 L 31.78125 -15.734375 L 19.765625 -15.734375 L 19.765625 0 L 6.6875 0 L 6.6875 -56.453125 L 31.140625 -56.453125 C 36.140625 -56.453125 40.476562 -55.617188 44.15625 -53.953125 C 47.84375 -52.285156 50.679688 -49.921875 52.671875 -46.859375 C 54.660156 -43.796875 55.65625 -40.164062 55.65625 -35.96875 C 55.65625 -31.78125 54.644531 -28.164062 52.625 -25.125 C 50.613281 -22.082031 47.75 -19.753906 44.03125 -18.140625 L 56.703125 0 Z M 42.421875 -35.96875 C 42.421875 -39.144531 41.398438 -41.578125 39.359375 -43.265625 C 37.316406 -44.960938 34.332031 -45.8125 30.40625 -45.8125 L 19.765625 -45.8125 L 19.765625 -26.125 L 30.40625 -26.125 C 34.332031 -26.125 37.316406 -26.984375 39.359375 -28.703125 C 41.398438 -30.429688 42.421875 -32.851562 42.421875 -35.96875 Z M 42.421875 -35.96875 "/></g></g></g><g fill="#ff2c58" fill-opacity="1"><g transform="translate(461.014537, 141.000004)"><g><path d="M 27.265625 -22.1875 L 19.6875 -14.28125 L 19.6875 0 L 6.6875 0 L 6.6875 -56.453125 L 19.6875 -56.453125 L 19.6875 -30.078125 L 44.6875 -56.453125 L 59.203125 -56.453125 L 35.8125 -31.296875 L 60.578125 0 L 45.328125 0 Z M 27.265625 -22.1875 "/></g></g></g><g fill="#000000" fill-opacity="1"><g transform="translate(181.863127, 142.837182)"><g><path d="M 25.25 0.96875 C 20.78125 0.96875 16.460938 0.363281 12.296875 -0.84375 C 8.128906 -2.050781 4.785156 -3.625 2.265625 -5.5625 L 6.6875 -15.40625 C 9.113281 -13.632812 11.992188 -12.207031 15.328125 -11.125 C 18.660156 -10.050781 21.992188 -9.515625 25.328125 -9.515625 C 29.035156 -9.515625 31.773438 -10.066406 33.546875 -11.171875 C 35.328125 -12.273438 36.21875 -13.738281 36.21875 -15.5625 C 36.21875 -16.90625 35.691406 -18.019531 34.640625 -18.90625 C 33.585938 -19.800781 32.242188 -20.515625 30.609375 -21.046875 C 28.972656 -21.585938 26.753906 -22.179688 23.953125 -22.828125 C 19.648438 -23.847656 16.128906 -24.867188 13.390625 -25.890625 C 10.648438 -26.910156 8.296875 -28.550781 6.328125 -30.8125 C 4.367188 -33.070312 3.390625 -36.082031 3.390625 -39.84375 C 3.390625 -43.125 4.273438 -46.09375 6.046875 -48.75 C 7.816406 -51.414062 10.488281 -53.523438 14.0625 -55.078125 C 17.644531 -56.640625 22.019531 -57.421875 27.1875 -57.421875 C 30.78125 -57.421875 34.296875 -56.988281 37.734375 -56.125 C 41.179688 -55.269531 44.195312 -54.035156 46.78125 -52.421875 L 42.75 -42.5 C 37.53125 -45.457031 32.3125 -46.9375 27.09375 -46.9375 C 23.4375 -46.9375 20.734375 -46.34375 18.984375 -45.15625 C 17.242188 -43.976562 16.375 -42.421875 16.375 -40.484375 C 16.375 -38.546875 17.378906 -37.109375 19.390625 -36.171875 C 21.410156 -35.234375 24.492188 -34.304688 28.640625 -33.390625 C 32.929688 -32.367188 36.445312 -31.347656 39.1875 -30.328125 C 41.9375 -29.304688 44.289062 -27.691406 46.25 -25.484375 C 48.21875 -23.285156 49.203125 -20.300781 49.203125 -16.53125 C 49.203125 -13.300781 48.300781 -10.351562 46.5 -7.6875 C 44.695312 -5.03125 41.992188 -2.921875 38.390625 -1.359375 C 34.785156 0.191406 30.40625 0.96875 25.25 0.96875 Z M 25.25 0.96875 "/></g></g></g><g fill="#000000" fill-opacity="1"><g transform="translate(245.415325, 142.837182)"><g><path d="M 31.140625 -56.453125 C 36.140625 -56.453125 40.476562 -55.617188 44.15625 -53.953125 C 47.84375 -52.285156 50.679688 -49.921875 52.671875 -46.859375 C 54.660156 -43.796875 55.65625 -40.164062 55.65625 -35.96875 C 55.65625 -31.832031 54.660156 -28.21875 52.671875 -25.125 C 50.679688 -22.03125 47.84375 -19.660156 44.15625 -18.015625 C 40.476562 -16.378906 36.140625 -15.5625 31.140625 -15.5625 L 19.765625 -15.5625 L 19.765625 0 L 6.6875 0 L 6.6875 -56.453125 Z M 30.40625 -26.21875 C 34.332031 -26.21875 37.316406 -27.0625 39.359375 -28.75 C 41.398438 -30.445312 42.421875 -32.851562 42.421875 -35.96875 C 42.421875 -39.144531 41.398438 -41.578125 39.359375 -43.265625 C 37.316406 -44.960938 34.332031 -45.8125 30.40625 -45.8125 L 19.765625 -45.8125 L 19.765625 -26.21875 Z M 30.40625 -26.21875 "/></g></g></g><g fill="#000000" fill-opacity="1"><g transform="translate(316.548478, 142.837182)"><g><path d="M 43.875 -12.09375 L 17.65625 -12.09375 L 12.65625 0 L -0.71875 0 L 24.4375 -56.453125 L 37.34375 -56.453125 L 62.59375 0 L 48.875 0 Z M 39.765625 -22.015625 L 30.8125 -43.640625 L 21.859375 -22.015625 Z M 39.765625 -22.015625 "/></g></g></g><g fill="#000000" fill-opacity="1"><g transform="translate(390.423681, 142.837182)"><g><path d="M 42.671875 0 L 31.78125 -15.734375 L 19.765625 -15.734375 L 19.765625 0 L 6.6875 0 L 6.6875 -56.453125 L 31.140625 -56.453125 C 36.140625 -56.453125 40.476562 -55.617188 44.15625 -53.953125 C 47.84375 -52.285156 50.679688 -49.921875 52.671875 -46.859375 C 54.660156 -43.796875 55.65625 -40.164062 55.65625 -35.96875 C 55.65625 -31.78125 54.644531 -28.164062 52.625 -25.125 C 50.613281 -22.082031 47.75 -19.753906 44.03125 -18.140625 L 56.703125 0 Z M 42.421875 -35.96875 C 42.421875 -39.144531 41.398438 -41.578125 39.359375 -43.265625 C 37.316406 -44.960938 34.332031 -45.8125 30.40625 -45.8125 L 19.765625 -45.8125 L 19.765625 -26.125 L 30.40625 -26.125 C 34.332031 -26.125 37.316406 -26.984375 39.359375 -28.703125 C 41.398438 -30.429688 42.421875 -32.851562 42.421875 -35.96875 Z M 42.421875 -35.96875 "/></g></g></g><g fill="#000000" fill-opacity="1"><g transform="translate(461.798785, 142.837182)"><g><path d="M 27.265625 -22.1875 L 19.6875 -14.28125 L 19.6875 0 L 6.6875 0 L 6.6875 -56.453125 L 19.6875 -56.453125 L 19.6875 -30.078125 L 44.6875 -56.453125 L 59.203125 -56.453125 L 35.8125 -31.296875 L 60.578125 0 L 45.328125 0 Z M 27.265625 -22.1875 "/></g></g></g></svg>