<svg xmlns="http://www.w3.org/2000/svg" xmlns:xlink="http://www.w3.org/1999/xlink" width="2000" zoomAndPan="magnify" viewBox="0 0 1500 1499.999933" height="2000" preserveAspectRatio="xMidYMid meet" version="1.0"><defs><clipPath id="95497a95e9"><path d="M 329.417969 104 L 841 104 L 841 1366 L 329.417969 1366 Z M 329.417969 104 " clip-rule="nonzero"/></clipPath></defs><g clip-path="url(#95497a95e9)"><path fill="#ff2c58" d="M 840.121094 1365.847656 C 535.953125 1114.25 479.625 851.386719 678.648438 573.503906 C 704.9375 592.28125 723.710938 614.8125 738.734375 644.851562 C 783.796875 543.460938 783.796875 430.808594 746.242188 329.417969 C 704.9375 228.027344 626.078125 145.414062 524.6875 104.105469 C 648.609375 273.089844 577.261719 423.296875 483.378906 562.238281 C 393.257812 693.671875 303.132812 783.792969 336.929688 960.289062 C 374.480469 1170.578125 596.035156 1339.5625 840.121094 1365.847656 Z M 840.121094 1365.847656 " fill-opacity="1" fill-rule="evenodd"/></g><path fill="#000000" d="M 918.980469 239.292969 C 997.839844 464.605469 937.757812 719.957031 765.019531 888.9375 L 712.445312 813.835938 C 629.832031 1035.390625 723.710938 1286.988281 937.757812 1395.886719 C 667.382812 1031.636719 1080.453125 907.714844 1159.3125 648.609375 C 1200.621094 487.136719 1118.007812 348.195312 918.980469 239.292969 Z M 918.980469 239.292969 " fill-opacity="1" fill-rule="evenodd"/></svg>