<svg xmlns="http://www.w3.org/2000/svg" xmlns:xlink="http://www.w3.org/1999/xlink" width="2000" zoomAndPan="magnify" viewBox="0 0 1500 1499.999933" height="2000" preserveAspectRatio="xMidYMid meet" version="1.0"><defs><g/><clipPath id="3cb8a1b5d9"><path d="M 584.679688 363.699219 L 786 363.699219 L 786 860 L 584.679688 860 Z M 584.679688 363.699219 " clip-rule="nonzero"/></clipPath><clipPath id="d7dc031e5e"><path d="M 723 416 L 915 416 L 915 871.449219 L 723 871.449219 Z M 723 416 " clip-rule="nonzero"/></clipPath><clipPath id="514985c2c0"><path d="M 173 157 L 455 157 L 455 222.640625 L 173 222.640625 Z M 173 157 " clip-rule="nonzero"/></clipPath><clipPath id="dc4d1d8614"><rect x="0" width="282" y="0" height="66"/></clipPath><clipPath id="17416a64ad"><rect x="0" width="635" y="0" height="223"/></clipPath></defs><rect x="-150" width="1800" fill="#ffffff" y="-149.999993" height="1799.99992" fill-opacity="1"/><rect x="-150" width="1800" fill="#f1f0f0" y="-149.999993" height="1799.99992" fill-opacity="1"/><g clip-path="url(#3cb8a1b5d9)"><path fill="#ff2c58" d="M 785.421875 859.75 C 665.863281 760.855469 643.722656 657.535156 721.949219 548.308594 C 732.285156 555.6875 739.664062 564.542969 745.566406 576.351562 C 763.28125 536.5 763.28125 492.21875 748.519531 452.363281 C 732.285156 412.511719 701.285156 380.039062 661.433594 363.800781 C 710.144531 430.222656 682.097656 489.265625 645.195312 543.878906 C 609.773438 595.539062 574.347656 630.964844 587.632812 700.339844 C 602.390625 782.996094 689.476562 849.417969 785.421875 859.75 Z M 785.421875 859.75 " fill-opacity="1" fill-rule="evenodd"/></g><g clip-path="url(#d7dc031e5e)"><path fill="#000000" d="M 816.417969 416.941406 C 847.414062 505.5 823.796875 605.871094 755.898438 672.292969 L 735.234375 642.773438 C 702.761719 729.859375 739.664062 828.753906 823.796875 871.558594 C 717.523438 728.382812 879.886719 679.675781 910.882812 577.828125 C 927.121094 514.359375 894.648438 459.746094 816.417969 416.941406 Z M 816.417969 416.941406 " fill-opacity="1" fill-rule="evenodd"/></g><g transform="matrix(1, 0, 0, 1, 443, 878)"><g clip-path="url(#17416a64ad)"><g fill="#ff2c58" fill-opacity="1"><g transform="translate(1.757229, 136.379412)"><g><path d="M 45.25 2 C 37.132812 2 29.257812 1 21.625 -1 C 13.988281 -3.007812 7.78125 -5.679688 3 -9.015625 L 12.3125 -29.9375 C 16.800781 -26.976562 22.003906 -24.585938 27.921875 -22.765625 C 33.847656 -20.953125 39.675781 -20.046875 45.40625 -20.046875 C 56.289062 -20.046875 61.734375 -22.769531 61.734375 -28.21875 C 61.734375 -31.082031 60.179688 -33.203125 57.078125 -34.578125 C 53.972656 -35.960938 48.984375 -37.421875 42.109375 -38.953125 C 34.566406 -40.578125 28.265625 -42.316406 23.203125 -44.171875 C 18.140625 -46.035156 13.789062 -49.019531 10.15625 -53.125 C 6.53125 -57.238281 4.71875 -62.78125 4.71875 -69.75 C 4.71875 -75.851562 6.390625 -81.363281 9.734375 -86.28125 C 13.078125 -91.207031 18.066406 -95.101562 24.703125 -97.96875 C 31.335938 -100.832031 39.476562 -102.265625 49.125 -102.265625 C 55.707031 -102.265625 62.195312 -101.519531 68.59375 -100.03125 C 75 -98.550781 80.632812 -96.378906 85.5 -93.515625 L 76.765625 -72.46875 C 67.210938 -77.625 57.953125 -80.203125 48.984375 -80.203125 C 43.347656 -80.203125 39.238281 -79.363281 36.65625 -77.6875 C 34.082031 -76.019531 32.796875 -73.851562 32.796875 -71.1875 C 32.796875 -68.507812 34.320312 -66.5 37.375 -65.15625 C 40.4375 -63.820312 45.351562 -62.441406 52.125 -61.015625 C 59.769531 -59.390625 66.097656 -57.644531 71.109375 -55.78125 C 76.117188 -53.914062 80.460938 -50.953125 84.140625 -46.890625 C 87.816406 -42.835938 89.65625 -37.328125 89.65625 -30.359375 C 89.65625 -24.347656 87.984375 -18.90625 84.640625 -14.03125 C 81.296875 -9.164062 76.28125 -5.273438 69.59375 -2.359375 C 62.914062 0.546875 54.800781 2 45.25 2 Z M 45.25 2 "/></g></g></g><g fill="#ff2c58" fill-opacity="1"><g transform="translate(115.900064, 136.379412)"><g><path d="M 55.859375 -100.25 C 64.929688 -100.25 72.804688 -98.742188 79.484375 -95.734375 C 86.171875 -92.734375 91.328125 -88.4375 94.953125 -82.84375 C 98.578125 -77.257812 100.390625 -70.695312 100.390625 -63.15625 C 100.390625 -55.613281 98.578125 -49.070312 94.953125 -43.53125 C 91.328125 -38 86.171875 -33.726562 79.484375 -30.71875 C 72.804688 -27.707031 64.929688 -26.203125 55.859375 -26.203125 L 38.375 -26.203125 L 38.375 0 L 10.03125 0 L 10.03125 -100.25 Z M 54.140625 -48.546875 C 59.960938 -48.546875 64.351562 -49.8125 67.3125 -52.34375 C 70.269531 -54.875 71.75 -58.476562 71.75 -63.15625 C 71.75 -67.832031 70.269531 -71.457031 67.3125 -74.03125 C 64.351562 -76.613281 59.960938 -77.90625 54.140625 -77.90625 L 38.375 -77.90625 L 38.375 -48.546875 Z M 54.140625 -48.546875 "/></g></g></g><g fill="#ff2c58" fill-opacity="1"><g transform="translate(242.931368, 136.379412)"><g><path d="M 77.1875 -19.484375 L 34.796875 -19.484375 L 26.921875 0 L -2 0 L 42.25 -100.25 L 70.171875 -100.25 L 114.578125 0 L 85.078125 0 Z M 68.890625 -40.390625 L 56 -72.46875 L 43.109375 -40.390625 Z M 68.890625 -40.390625 "/></g></g></g><g fill="#ff2c58" fill-opacity="1"><g transform="translate(376.979745, 136.379412)"><g><path d="M 53.84375 -26.640625 L 38.375 -26.640625 L 38.375 0 L 10.03125 0 L 10.03125 -100.25 L 55.859375 -100.25 C 64.929688 -100.25 72.804688 -98.742188 79.484375 -95.734375 C 86.171875 -92.734375 91.328125 -88.4375 94.953125 -82.84375 C 98.578125 -77.257812 100.390625 -70.695312 100.390625 -63.15625 C 100.390625 -55.90625 98.695312 -49.582031 95.3125 -44.1875 C 91.925781 -38.789062 87.082031 -34.566406 80.78125 -31.515625 L 102.40625 0 L 72.03125 0 Z M 71.75 -63.15625 C 71.75 -67.832031 70.269531 -71.457031 67.3125 -74.03125 C 64.351562 -76.613281 59.960938 -77.90625 54.140625 -77.90625 L 38.375 -77.90625 L 38.375 -48.546875 L 54.140625 -48.546875 C 59.960938 -48.546875 64.351562 -49.8125 67.3125 -52.34375 C 70.269531 -54.875 71.75 -58.476562 71.75 -63.15625 Z M 71.75 -63.15625 "/></g></g></g><g fill="#ff2c58" fill-opacity="1"><g transform="translate(504.440651, 136.379412)"><g><path d="M 48.6875 -36.375 L 38.09375 -25.0625 L 38.09375 0 L 10.03125 0 L 10.03125 -100.25 L 38.09375 -100.25 L 38.09375 -58.578125 L 76.90625 -100.25 L 108.125 -100.25 L 67.171875 -55.859375 L 110.28125 0 L 77.34375 0 Z M 48.6875 -36.375 "/></g></g></g><g clip-path="url(#514985c2c0)"><g transform="matrix(1, 0, 0, 1, 173, 157)"><g clip-path="url(#dc4d1d8614)"><g fill="#000000" fill-opacity="1"><g transform="translate(0.471679, 51.954027)"><g><path d="M 12.859375 -29.9375 L 12.859375 -20.21875 L 29.875 -20.21875 L 29.875 -13.390625 L 12.859375 -13.390625 L 12.859375 0 L 4.359375 0 L 4.359375 -36.765625 L 32.140625 -36.765625 L 32.140625 -29.9375 Z M 12.859375 -29.9375 "/></g></g></g><g fill="#000000" fill-opacity="1"><g transform="translate(47.158912, 51.954027)"><g><path d="M 4.359375 -36.765625 L 12.859375 -36.765625 L 12.859375 0 L 4.359375 0 Z M 4.359375 -36.765625 "/></g></g></g><g fill="#000000" fill-opacity="1"><g transform="translate(77.514992, 51.954027)"><g><path d="M 4.359375 -36.765625 L 12.859375 -36.765625 L 12.859375 -6.9375 L 31.296875 -6.9375 L 31.296875 0 L 4.359375 0 Z M 4.359375 -36.765625 "/></g></g></g><g fill="#000000" fill-opacity="1"><g transform="translate(122.364316, 51.954027)"><g><path d="M 37.8125 0 L 37.765625 -22.0625 L 26.9375 -3.890625 L 23.109375 -3.890625 L 12.34375 -21.578125 L 12.34375 0 L 4.359375 0 L 4.359375 -36.765625 L 11.390625 -36.765625 L 25.15625 -13.921875 L 38.703125 -36.765625 L 45.6875 -36.765625 L 45.796875 0 Z M 37.8125 0 "/></g></g></g><g fill="#000000" fill-opacity="1"><g transform="translate(185.645263, 51.954027)"><g><path d="M 32.828125 -6.828125 L 32.828125 0 L 4.359375 0 L 4.359375 -36.765625 L 32.140625 -36.765625 L 32.140625 -29.9375 L 12.8125 -29.9375 L 12.8125 -21.953125 L 29.875 -21.953125 L 29.875 -15.328125 L 12.8125 -15.328125 L 12.8125 -6.828125 Z M 32.828125 -6.828125 "/></g></g></g><g fill="#000000" fill-opacity="1"><g transform="translate(234.012888, 51.954027)"><g><path d="M 16.4375 0.625 C 13.53125 0.625 10.71875 0.234375 8 -0.546875 C 5.289062 -1.335938 3.113281 -2.363281 1.46875 -3.625 L 4.359375 -10.03125 C 5.929688 -8.875 7.800781 -7.945312 9.96875 -7.25 C 12.144531 -6.550781 14.316406 -6.203125 16.484375 -6.203125 C 18.898438 -6.203125 20.6875 -6.554688 21.84375 -7.265625 C 23 -7.984375 23.578125 -8.941406 23.578125 -10.140625 C 23.578125 -11.015625 23.234375 -11.738281 22.546875 -12.3125 C 21.867188 -12.894531 20.992188 -13.359375 19.921875 -13.703125 C 18.859375 -14.054688 17.414062 -14.441406 15.59375 -14.859375 C 12.789062 -15.523438 10.5 -16.191406 8.71875 -16.859375 C 6.9375 -17.523438 5.40625 -18.59375 4.125 -20.0625 C 2.84375 -21.53125 2.203125 -23.488281 2.203125 -25.9375 C 2.203125 -28.070312 2.78125 -30.003906 3.9375 -31.734375 C 5.09375 -33.472656 6.832031 -34.847656 9.15625 -35.859375 C 11.488281 -36.878906 14.335938 -37.390625 17.703125 -37.390625 C 20.046875 -37.390625 22.335938 -37.109375 24.578125 -36.546875 C 26.816406 -35.984375 28.773438 -35.179688 30.453125 -34.140625 L 27.828125 -27.671875 C 24.429688 -29.597656 21.035156 -30.5625 17.640625 -30.5625 C 15.265625 -30.5625 13.503906 -30.175781 12.359375 -29.40625 C 11.222656 -28.632812 10.65625 -27.617188 10.65625 -26.359375 C 10.65625 -25.097656 11.3125 -24.160156 12.625 -23.546875 C 13.9375 -22.941406 15.941406 -22.335938 18.640625 -21.734375 C 21.441406 -21.078125 23.734375 -20.414062 25.515625 -19.75 C 27.304688 -19.082031 28.835938 -18.03125 30.109375 -16.59375 C 31.390625 -15.15625 32.03125 -13.210938 32.03125 -10.765625 C 32.03125 -8.660156 31.441406 -6.742188 30.265625 -5.015625 C 29.097656 -3.285156 27.34375 -1.910156 25 -0.890625 C 22.65625 0.117188 19.800781 0.625 16.4375 0.625 Z M 16.4375 0.625 "/></g></g></g></g></g></g></g></g><g fill="#000000" fill-opacity="1"><g transform="translate(446.345415, 1020.365988)"><g><path d="M 45.265625 2 C 37.148438 2 29.269531 1 21.625 -1 C 13.988281 -3.007812 7.785156 -5.6875 3.015625 -9.03125 L 12.3125 -29.9375 C 16.800781 -26.976562 22.003906 -24.59375 27.921875 -22.78125 C 33.847656 -20.96875 39.675781 -20.0625 45.40625 -20.0625 C 56.289062 -20.0625 61.734375 -22.78125 61.734375 -28.21875 C 61.734375 -31.082031 60.179688 -33.207031 57.078125 -34.59375 C 53.972656 -35.976562 48.984375 -37.4375 42.109375 -38.96875 C 34.566406 -40.59375 28.265625 -42.332031 23.203125 -44.1875 C 18.140625 -46.050781 13.796875 -49.035156 10.171875 -53.140625 C 6.546875 -57.253906 4.734375 -62.796875 4.734375 -69.765625 C 4.734375 -75.878906 6.398438 -81.394531 9.734375 -86.3125 C 13.078125 -91.226562 18.066406 -95.117188 24.703125 -97.984375 C 31.347656 -100.847656 39.492188 -102.28125 49.140625 -102.28125 C 55.722656 -102.28125 62.210938 -101.539062 68.609375 -100.0625 C 75.015625 -98.582031 80.648438 -96.410156 85.515625 -93.546875 L 76.78125 -72.484375 C 67.226562 -77.640625 57.960938 -80.21875 48.984375 -80.21875 C 43.359375 -80.21875 39.253906 -79.378906 36.671875 -77.703125 C 34.085938 -76.035156 32.796875 -73.863281 32.796875 -71.1875 C 32.796875 -68.519531 34.320312 -66.515625 37.375 -65.171875 C 40.4375 -63.835938 45.359375 -62.457031 52.140625 -61.03125 C 59.785156 -59.40625 66.113281 -57.660156 71.125 -55.796875 C 76.132812 -53.929688 80.476562 -50.96875 84.15625 -46.90625 C 87.832031 -42.851562 89.671875 -37.34375 89.671875 -30.375 C 89.671875 -24.351562 88 -18.90625 84.65625 -14.03125 C 81.3125 -9.164062 76.296875 -5.273438 69.609375 -2.359375 C 62.929688 0.546875 54.816406 2 45.265625 2 Z M 45.265625 2 "/></g></g></g><g fill="#000000" fill-opacity="1"><g transform="translate(560.517226, 1020.365988)"><g><path d="M 55.875 -100.28125 C 64.9375 -100.28125 72.8125 -98.773438 79.5 -95.765625 C 86.1875 -92.753906 91.34375 -88.453125 94.96875 -82.859375 C 98.601562 -77.273438 100.421875 -70.710938 100.421875 -63.171875 C 100.421875 -55.628906 98.601562 -49.085938 94.96875 -43.546875 C 91.34375 -38.003906 86.1875 -33.726562 79.5 -30.71875 C 72.8125 -27.71875 64.9375 -26.21875 55.875 -26.21875 L 38.390625 -26.21875 L 38.390625 0 L 10.03125 0 L 10.03125 -100.28125 Z M 54.15625 -48.5625 C 59.976562 -48.5625 64.367188 -49.828125 67.328125 -52.359375 C 70.285156 -54.890625 71.765625 -58.492188 71.765625 -63.171875 C 71.765625 -67.847656 70.285156 -71.472656 67.328125 -74.046875 C 64.367188 -76.628906 59.976562 -77.921875 54.15625 -77.921875 L 38.390625 -77.921875 L 38.390625 -48.5625 Z M 54.15625 -48.5625 "/></g></g></g><g fill="#000000" fill-opacity="1"><g transform="translate(687.58154, 1020.365988)"><g><path d="M 77.21875 -19.484375 L 34.8125 -19.484375 L 26.9375 0 L -2 0 L 42.265625 -100.28125 L 70.1875 -100.28125 L 114.59375 0 L 85.09375 0 Z M 68.90625 -40.390625 L 56.015625 -72.484375 L 43.125 -40.390625 Z M 68.90625 -40.390625 "/></g></g></g><g fill="#000000" fill-opacity="1"><g transform="translate(821.665089, 1020.365988)"><g><path d="M 53.859375 -26.640625 L 38.390625 -26.640625 L 38.390625 0 L 10.03125 0 L 10.03125 -100.28125 L 55.875 -100.28125 C 64.9375 -100.28125 72.8125 -98.773438 79.5 -95.765625 C 86.1875 -92.753906 91.34375 -88.453125 94.96875 -82.859375 C 98.601562 -77.273438 100.421875 -70.710938 100.421875 -63.171875 C 100.421875 -55.910156 98.722656 -49.582031 95.328125 -44.1875 C 91.941406 -38.789062 87.097656 -34.566406 80.796875 -31.515625 L 102.421875 0 L 72.0625 0 Z M 71.765625 -63.171875 C 71.765625 -67.847656 70.285156 -71.472656 67.328125 -74.046875 C 64.367188 -76.628906 59.976562 -77.921875 54.15625 -77.921875 L 38.390625 -77.921875 L 38.390625 -48.5625 L 54.15625 -48.5625 C 59.976562 -48.5625 64.367188 -49.828125 67.328125 -52.359375 C 70.285156 -54.890625 71.765625 -58.492188 71.765625 -63.171875 Z M 71.765625 -63.171875 "/></g></g></g><g fill="#000000" fill-opacity="1"><g transform="translate(949.15913, 1020.365988)"><g><path d="M 48.703125 -36.390625 L 38.109375 -25.0625 L 38.109375 0 L 10.03125 0 L 10.03125 -100.28125 L 38.109375 -100.28125 L 38.109375 -58.59375 L 76.921875 -100.28125 L 108.15625 -100.28125 L 67.1875 -55.875 L 110.296875 0 L 77.359375 0 Z M 48.703125 -36.390625 "/></g></g></g></svg>